<svg xmlns="http://www.w3.org/2000/svg" viewBox="0 0 96 96" role="img" aria-labelledby="title desc">
  <title id="title">Venture Digital logo</title>
  <desc id="desc">A blue gradient VD monogram inside a rounded square.</desc>
  <defs>
    <linearGradient id="g" x1="12" x2="84" y1="12" y2="84" gradientUnits="userSpaceOnUse">
      <stop offset="0" stop-color="#38bdf8"/>
      <stop offset="1" stop-color="#818cf8"/>
    </linearGradient>
  </defs>
  <rect width="96" height="96" rx="26" fill="#020617"/>
  <rect x="10" y="10" width="76" height="76" rx="22" fill="url(#g)"/>
  <path fill="#020617" d="M22 28h9l10 28 10-28h9L45 68h-8L22 28Zm40 0h10c7 0 12 2 16 6s6 8 6 14-2 10-6 14-9 6-16 6H62V28Zm9 8v24h2c4 0 7-1 9-3s3-5 3-9-1-7-3-9-5-3-9-3h-2Z"/>
</svg>
